<svg width="512" height="512" viewBox="0 0 512 512" fill="none" xmlns="http://www.w3.org/2000/svg">
<path d="M26.9999 278.5C28.0449 277.456 29.1229 276.455 30.2169 275.477C31.0352 274.29 32.1578 273.345 33.4669 272.742C47.0621 261.897 63.939 255.994 81.3299 256C97.6349 256 106.239 253.21 123.377 246.363L132.765 242.607L132.806 242.59L137.54 240.7L225.588 196.681C226.31 196.324 227.024 195.958 227.743 195.589L227.792 195.565L227.836 195.542C232.027 193.398 236.228 191.126 240.321 188.788C244.593 186.347 248.727 183.85 252.628 181.353C260.782 176.169 268.765 170.532 276.357 164.598C293.267 151.392 308.72 136.422 322.457 119.94L326.677 114.88C327.428 113.979 328.367 113.255 329.429 112.757C330.491 112.26 331.649 112.002 332.822 112.002C333.995 112.002 335.153 112.26 336.215 112.757C337.277 113.255 338.216 113.979 338.967 114.88L357.234 136.808C363.393 144.197 367.033 153.359 367.625 162.96C368.216 172.561 365.728 182.1 360.522 190.189L369.371 196.089C372.348 198.075 375.743 199.347 379.292 199.807C382.841 200.267 386.448 199.902 389.833 198.741C393.218 197.581 396.29 195.655 398.81 193.113C401.329 190.572 403.229 187.484 404.361 184.089L407.25 175.423C409.515 168.244 414.133 162.036 420.357 157.802C426.581 153.567 434.05 151.551 441.56 152.08C449.07 152.609 456.183 155.651 461.752 160.716C467.322 165.781 471.024 172.574 472.261 180L476.69 206.558L488.009 263.15C489.662 271.463 490.381 279.934 490.154 288.406C490.161 288.727 490.149 289.049 490.118 289.369C489.849 297.329 488.745 305.239 486.823 312.969C486.362 314.793 486.267 316.69 486.543 318.551C486.82 320.412 487.462 322.2 488.434 323.811L492.751 331.011C494.492 333.916 495.432 337.231 495.474 340.618C495.516 344.004 494.66 347.342 492.992 350.29C491.324 353.237 488.904 355.69 485.979 357.398C483.054 359.106 479.729 360.007 476.342 360.011L179.835 360.331H179.399C156.035 360.326 132.716 358.277 109.709 354.208L96.4949 351.867C96.4299 351.856 96.3659 351.844 96.3019 351.831L42.6319 340.961C42.3183 340.897 42.0087 340.815 41.7049 340.714C35.6283 338.69 30.1699 335.146 25.848 330.419C21.5261 325.692 18.4841 319.939 17.0108 313.706C15.5376 307.473 15.6819 300.966 17.4302 294.805C19.1785 288.643 22.4726 283.031 26.9999 278.5ZM248.257 202.677C247.103 203.336 245.925 203.977 244.757 204.623L255.808 215.673C257.308 217.173 258.151 219.208 258.151 221.33C258.151 223.452 257.308 225.487 255.808 226.987C254.308 228.487 252.273 229.33 250.151 229.33C248.029 229.33 245.994 228.487 244.494 226.987L229.91 212.4L212.994 220.857L223.807 231.669C224.55 232.412 225.139 233.294 225.541 234.264C225.943 235.235 226.15 236.275 226.15 237.326C226.15 238.377 225.943 239.417 225.541 240.388C225.139 241.358 224.55 242.24 223.807 242.983C223.064 243.726 222.182 244.315 221.211 244.717C220.241 245.119 219.201 245.326 218.15 245.326C217.099 245.326 216.059 245.119 215.088 244.717C214.118 244.315 213.236 243.726 212.493 242.983L197.909 228.4L180.993 236.857L191.807 247.67C193.307 249.17 194.15 251.205 194.15 253.327C194.15 255.449 193.307 257.484 191.807 258.984C190.307 260.484 188.272 261.327 186.15 261.327C184.028 261.327 181.993 260.484 180.493 258.984L165.908 244.4L152.156 251.275L169.884 263.093C173.508 265.516 177.677 267 182.016 267.413C186.356 267.825 190.73 267.153 194.745 265.456L288.226 226.1C291.374 224.774 294.133 222.67 296.244 219.984C298.355 217.299 299.748 214.121 300.293 210.749C300.837 207.377 300.516 203.922 299.358 200.708C298.2 197.495 296.244 194.629 293.674 192.379L280.93 181.228C274.541 186.007 267.94 190.578 261.23 194.842C257.127 197.465 252.763 200.1 248.257 202.677ZM460.976 209.569C460.959 209.485 460.943 209.401 460.929 209.316L456.479 182.635C455.804 178.543 453.697 174.824 450.532 172.143C447.368 169.462 443.353 167.993 439.206 168C438.837 168 438.465 168.012 438.092 168.035C434.544 168.334 431.165 169.675 428.377 171.89C425.59 174.105 423.52 177.095 422.428 180.483L419.539 189.152C417.629 194.881 414.425 200.092 410.173 204.38C405.922 208.668 400.739 211.919 395.028 213.878C389.316 215.837 383.23 216.453 377.241 215.678C371.253 214.902 365.524 212.756 360.5 209.406L344.381 198.656C343.396 197.999 342.569 197.132 341.96 196.118C341.351 195.103 340.974 193.966 340.858 192.788C340.741 191.61 340.887 190.421 341.286 189.307C341.684 188.192 342.325 187.18 343.162 186.343C348.311 181.199 351.35 174.314 351.679 167.042C352.008 159.771 349.605 152.64 344.942 147.051L332.808 132.484C320.915 146.474 307.833 159.409 293.708 171.142L304.208 180.334C308.821 184.37 312.331 189.513 314.409 195.279C316.487 201.046 317.065 207.246 316.087 213.297C315.11 219.348 312.609 225.05 308.821 229.869C305.033 234.688 300.082 238.464 294.433 240.842L200.954 280.2C194.502 282.926 187.474 284.006 180.502 283.342C173.529 282.679 166.831 280.294 161.009 276.4L134.885 258.984L129.318 261.212C112.588 267.9 101.32 272 81.3299 272C75.0927 271.998 68.8927 272.96 62.95 274.854L109.7 280.049C110.745 280.165 111.757 280.486 112.677 280.993C113.598 281.501 114.41 282.185 115.066 283.006L131.848 304H320.72C323.708 304 326.697 303.967 329.687 303.9L325.23 290.53C324.712 288.978 324.683 287.304 325.147 285.734C325.61 284.165 326.544 282.775 327.822 281.753L367.822 249.753C368.72 249.035 369.763 248.518 370.879 248.239L464.051 224.946L460.976 209.569ZM406.491 295.505L474.136 281.976C473.974 277.315 473.478 272.671 472.652 268.081L417.94 281.761C416.918 282.024 415.854 282.083 414.809 281.933C413.764 281.783 412.76 281.428 411.853 280.888C410.946 280.349 410.155 279.635 409.525 278.788C408.895 277.941 408.439 276.978 408.183 275.954C407.927 274.93 407.876 273.866 408.034 272.822C408.191 271.778 408.553 270.776 409.099 269.873C409.646 268.97 410.365 268.184 411.217 267.56C412.068 266.937 413.034 266.488 414.06 266.239L469.535 252.367L467.192 240.653L376.454 263.338L342.173 290.762L346.332 303.239C366.539 302.053 386.641 299.469 406.491 295.505ZM32.644 310.321C33.5059 313.765 35.205 316.942 37.5902 319.571C39.9755 322.201 42.9731 324.2 46.3169 325.392L99.3829 336.14L112.5 338.463C134.723 342.391 157.249 344.358 179.817 344.341L476.325 344.021C476.883 344.02 477.43 343.871 477.911 343.589C478.393 343.308 478.791 342.904 479.065 342.418C479.34 341.933 479.481 341.383 479.474 340.826C479.466 340.268 479.312 339.722 479.025 339.244L474.708 332.044C472.652 328.634 471.291 324.85 470.706 320.911C470.121 316.972 470.322 312.957 471.298 309.096C472.173 305.59 472.851 302.039 473.329 298.457L409.629 311.198C386.909 315.733 363.875 318.525 340.729 319.55H340.671H340.653C334.009 319.844 327.365 319.994 320.722 320H128C126.799 320 125.614 319.73 124.532 319.209C123.45 318.689 122.499 317.932 121.75 316.994L104.641 295.585L39.8219 288.385C39.3159 288.857 38.8079 289.327 38.3219 289.818C35.6887 292.456 33.7825 295.73 32.7885 299.322C31.7944 302.914 31.7463 306.702 32.6489 310.318L32.644 310.321Z" fill="url(#paint0_linear)"/>
<defs>
<linearGradient id="paint0_linear" x1="44" y1="360" x2="481.5" y2="126" gradientUnits="userSpaceOnUse">
<stop stop-color="#1F1C1C"/>
<stop offset="1" stop-color="#FF0000"/>
</linearGradient>
</defs>
</svg>
