<svg width="29" height="10" viewBox="0 0 29 10" fill="none" xmlns="http://www.w3.org/2000/svg">
<path d="M3.98438 6.71484C4.02344 6.42578 3.98047 6.18555 3.85547 5.99414C3.73438 5.79883 3.47852 5.60938 3.08789 5.42578C2.70117 5.23828 2.37695 5.04492 2.11523 4.8457C1.40039 4.30273 1.07227 3.61719 1.13086 2.78906C1.16602 2.3125 1.31445 1.88867 1.57617 1.51758C1.8418 1.14258 2.19531 0.851562 2.63672 0.644531C3.07812 0.4375 3.55078 0.339844 4.05469 0.351562C4.78516 0.367188 5.35547 0.621094 5.76562 1.11328C6.17969 1.60156 6.37109 2.22852 6.33984 2.99414L4.66406 2.98828C4.70703 2.1875 4.45117 1.78125 3.89648 1.76953C3.61133 1.76172 3.36523 1.85547 3.1582 2.05078C2.95508 2.24219 2.83203 2.49023 2.78906 2.79492C2.73047 3.25195 3.04688 3.64258 3.73828 3.9668C4.42969 4.29102 4.92578 4.65625 5.22656 5.0625C5.5625 5.51172 5.70508 6.05859 5.6543 6.70312C5.5957 7.44531 5.30273 8.03906 4.77539 8.48438C4.24805 8.92578 3.58984 9.13867 2.80078 9.12305C2.00781 9.10742 1.38086 8.83789 0.919922 8.31445C0.458984 7.79102 0.248047 7.12109 0.287109 6.30469L1.97461 6.31055C1.94336 6.81445 2.00781 7.17578 2.16797 7.39453C2.33203 7.60938 2.58789 7.7168 2.93555 7.7168C3.24023 7.71289 3.48047 7.61914 3.65625 7.43555C3.83203 7.24805 3.94141 7.00781 3.98438 6.71484ZM12.7992 9H11.1586L9.67031 3.3457L8.68594 9H7.0043L8.48086 0.46875H10.1273L11.6215 6.12891L12.6059 0.46875H14.2816L12.7992 9ZM17.7352 5.73047L16.8797 6.63281L16.4695 9H14.7879L16.2645 0.46875H17.9461L17.3133 4.0957L17.993 3.19336L19.9617 0.46875H22.1121L19.0242 4.29492L20.5828 9H18.6668L17.7352 5.73047ZM25.8234 6.71484C25.8625 6.42578 25.8195 6.18555 25.6945 5.99414C25.5734 5.79883 25.3176 5.60938 24.927 5.42578C24.5402 5.23828 24.216 5.04492 23.9543 4.8457C23.2395 4.30273 22.9113 3.61719 22.9699 2.78906C23.0051 2.3125 23.1535 1.88867 23.4152 1.51758C23.6809 1.14258 24.0344 0.851562 24.4758 0.644531C24.9172 0.4375 25.3898 0.339844 25.8937 0.351562C26.6242 0.367188 27.1945 0.621094 27.6047 1.11328C28.0187 1.60156 28.2102 2.22852 28.1789 2.99414L26.5031 2.98828C26.5461 2.1875 26.2902 1.78125 25.7355 1.76953C25.4504 1.76172 25.2043 1.85547 24.9973 2.05078C24.7941 2.24219 24.6711 2.49023 24.6281 2.79492C24.5695 3.25195 24.8859 3.64258 25.5773 3.9668C26.2687 4.29102 26.7648 4.65625 27.0656 5.0625C27.4016 5.51172 27.5441 6.05859 27.4934 6.70312C27.4348 7.44531 27.1418 8.03906 26.6145 8.48438C26.0871 8.92578 25.4289 9.13867 24.6398 9.12305C23.8469 9.10742 23.2199 8.83789 22.759 8.31445C22.298 7.79102 22.0871 7.12109 22.1262 6.30469L23.8137 6.31055C23.7824 6.81445 23.8469 7.17578 24.007 7.39453C24.1711 7.60938 24.427 7.7168 24.7746 7.7168C25.0793 7.71289 25.3195 7.61914 25.4953 7.43555C25.6711 7.24805 25.7805 7.00781 25.8234 6.71484Z" fill="url(#paint0_linear)"/>
<defs>
<linearGradient id="paint0_linear" x1="29" y1="-2" x2="5.92523e-07" y2="9" gradientUnits="userSpaceOnUse">
<stop stop-color="#FF0000"/>
<stop offset="1" stop-color="#1F1C1C"/>
</linearGradient>
</defs>
</svg>
